<svg width="411" height="405" viewBox="0 0 411 405" fill="none" xmlns="http://www.w3.org/2000/svg">
<g clip-path="url(#clip0_639_2)">
<g opacity="0.5">
<path d="M251.161 -0.000297153L31.4146 100.48L169.911 404.84L389.657 304.36L251.161 -0.000297153Z" fill="url(#paint0_linear_639_2)"/>
</g>
<path d="M249.382 3.52143L35.2273 101.445L170.662 399.078L384.817 301.154L249.382 3.52143Z" fill="white"/>
<path d="M192.13 20.2026L85.8911 68.7812L97.6298 94.5782L203.869 45.9995L192.13 20.2026Z" fill="url(#paint1_linear_639_2)"/>
<path d="M127.535 19.2798C124.48 20.5905 121.884 22.7843 120.078 25.5809C118.272 28.3776 117.339 31.6502 117.398 34.9809C117.456 38.3117 118.503 41.5494 120.406 44.2806C122.309 47.0119 124.98 49.1127 128.079 50.3149C131.179 51.5171 134.565 51.766 137.806 51.03C141.047 50.2939 143.996 48.6062 146.276 46.1825C148.555 43.7587 150.063 40.7088 150.605 37.4223C151.148 34.1357 150.701 30.7616 149.322 27.7308C147.55 23.7145 144.259 20.568 140.174 18.9832C136.088 17.3985 131.542 17.5051 127.535 19.2798ZM138.473 43.3158C136.748 44.1548 134.812 44.4592 132.913 44.1902C131.015 43.9212 129.239 43.091 127.813 41.8056C126.387 40.5202 125.376 38.838 124.908 36.9737C124.44 35.1094 124.537 33.1477 125.187 31.3391C125.837 29.5304 127.01 27.957 128.556 26.8196C130.102 25.6822 131.951 25.0325 133.867 24.9535C135.783 24.8745 137.679 25.3697 139.313 26.376C140.947 27.3822 142.244 28.8538 143.04 30.6028C143.573 31.7384 143.878 32.9682 143.937 34.2218C143.996 35.4755 143.808 36.7286 143.384 37.9095C142.96 39.0904 142.308 40.176 141.465 41.1043C140.623 42.0326 139.606 42.7854 138.473 43.3198V43.3158Z" fill="url(#paint2_linear_639_2)"/>
<path d="M191.016 20.7338L87.0154 68.2891L98.2378 92.9515L202.239 45.3962L191.016 20.7338Z" fill="#3182CE"/>
<path d="M128.044 20.401C125.169 21.7156 122.746 23.8556 121.084 26.5502C119.422 29.2448 118.594 32.3731 118.705 35.5395C118.816 38.7058 119.861 41.7681 121.709 44.3389C123.556 46.9096 126.122 48.8736 129.083 49.9823C132.044 51.0909 135.266 51.2946 138.342 50.5675C141.419 49.8403 144.211 48.2151 146.366 45.8972C148.52 43.5793 149.941 40.673 150.448 37.5457C150.955 34.4184 150.526 31.2106 149.214 28.328C147.455 24.4629 144.237 21.4564 140.267 19.9698C136.297 18.4832 131.9 18.6383 128.044 20.401ZM138.501 43.387C136.842 44.1449 134.997 44.3928 133.198 44.0994C131.398 43.806 129.726 42.9844 128.393 41.7385C127.06 40.4926 126.125 38.8784 125.706 37.0999C125.288 35.3214 125.405 33.4584 126.043 31.7466C126.68 30.0349 127.81 28.551 129.289 27.4828C130.768 26.4145 132.53 25.8098 134.351 25.7451C136.173 25.6804 137.973 26.1586 139.524 27.1192C141.074 28.0798 142.306 29.4798 143.063 31.142C143.566 32.2463 143.847 33.439 143.89 34.6521C143.932 35.8652 143.736 37.0749 143.313 38.212C142.889 39.3492 142.246 40.3915 141.421 41.2794C140.595 42.1674 139.603 42.8836 138.501 43.387Z" fill="#3182CE"/>
<path d="M113.082 124.081L67.2295 145.047L88.145 191.011L133.997 170.044L113.082 124.081Z" fill="url(#paint3_linear_639_2)"/>
<path d="M154.685 215.096L108.832 236.062L129.748 282.026L175.6 261.06L154.685 215.096Z" fill="url(#paint4_linear_639_2)"/>
<path d="M112.166 126.53L69.6707 145.961L89.0547 188.559L131.55 169.128L112.166 126.53Z" fill="#69F0AE"/>
<path d="M153.23 216.772L110.735 236.203L130.119 278.802L172.614 259.37L153.23 216.772Z" fill="#3182CE"/>
<path d="M204.354 100.264L146.106 126.898L147.96 130.973L206.208 104.338L204.354 100.264Z" fill="#E0E0E0"/>
<path d="M245.067 89.0304L148.891 133.008L150.745 137.082L246.921 93.1045L245.067 89.0304Z" fill="#E0E0E0"/>
<path d="M241.069 98.2413L151.667 139.121L153.521 143.195L242.923 102.315L241.069 98.2413Z" fill="#E0E0E0"/>
<path d="M245.421 190.51L187.174 217.145L189.027 221.219L247.275 194.585L245.421 190.51Z" fill="#E0E0E0"/>
<path d="M286.132 179.273L189.956 223.25L191.81 227.324L287.986 183.347L286.132 179.273Z" fill="#E0E0E0"/>
<path d="M282.136 188.483L192.734 229.363L194.588 233.437L283.99 192.558L282.136 188.483Z" fill="#E0E0E0"/>
<path d="M89.8084 159.413L100.751 162.975L104.351 141.863L109.676 143.323L103.691 169.423L87.1868 162.171L89.8084 159.413Z" fill="url(#paint5_linear_639_2)"/>
<path d="M91.2051 159.135L100.72 162.229L103.849 143.871L108.477 145.142L103.27 167.837L88.9197 161.537L91.2051 159.135Z" fill="white"/>
<path d="M132.526 249.94L142.04 253.034L145.174 234.676L149.802 235.947L144.594 258.642L130.244 252.342L132.526 249.94Z" fill="white"/>
<path d="M315.201 252.069L179.326 314.199L199.985 359.6L335.86 297.47L315.201 252.069Z" fill="#E0E0E0"/>
<path d="M295.503 288.252C290.282 286.759 284.938 287.043 283.274 293.028C282.713 295.045 282.647 298.176 280.489 299.216C277.312 300.747 273.481 297.686 270.724 296.439C268.391 295.265 265.696 295.04 263.201 295.812C260.707 296.585 258.607 298.293 257.34 300.581C255.959 303.109 255.054 305.869 254.672 308.726C254.566 310.046 254.31 311.351 253.909 312.614C252.925 314.82 249.842 314.621 247.824 314.536C247.373 314.526 246.924 314.493 246.476 314.437C248.075 312.229 248.873 309.541 248.739 306.817C248.607 302.343 245.708 297.449 240.643 297.997C238.461 298.29 236.482 299.43 235.131 301.171C233.78 302.912 233.165 305.116 233.418 307.307C233.678 309.103 234.361 310.811 235.411 312.29C236.461 313.768 237.848 314.974 239.455 315.807C237.91 316.492 236.263 317.026 234.8 317.734C234.117 318.066 233.455 318.436 232.816 318.844C228.399 316.709 222.598 316.308 218.626 318.486C216.704 319.539 218.107 322.672 220.04 321.609C223.065 319.951 226.402 320.366 229.563 321.419L229.828 321.513C229.515 321.915 229.239 322.343 229.003 322.794C227.217 326.271 229.003 331.77 233.348 332.148C239.474 332.672 239.763 324.556 236.435 321.325C236.293 321.188 236.152 321.055 236.001 320.924C237.376 320.258 238.866 319.757 240.181 319.195C241.326 318.709 242.417 318.101 243.433 317.382L243.668 317.442C248.348 318.505 255.652 318.836 257.335 313.153C258.777 308.221 258.914 297.748 266.689 298.716C269.86 299.108 272.462 301.551 275.478 302.435C278.178 303.243 281.303 303.275 283.517 301.281C285.346 299.637 285.756 297.21 286.316 294.942C286.473 293.679 287.004 292.493 287.839 291.536C289.559 290.029 292.401 290.917 294.323 291.465C296.413 292.069 297.629 288.857 295.503 288.252ZM234.71 328.213C233.677 329.238 232.584 328.426 232.033 327.353C231.732 326.753 231.616 326.078 231.7 325.412C231.784 324.746 232.064 324.121 232.504 323.616C232.644 323.428 232.793 323.248 232.952 323.077C234.993 324.4 236.661 326.293 234.729 328.211L234.71 328.213ZM238.329 302.703C238.765 302.227 239.314 301.87 239.925 301.665C240.536 301.46 241.188 301.414 241.822 301.531C242.455 301.649 243.049 301.925 243.546 302.335C244.044 302.745 244.43 303.274 244.668 303.875C245.25 305.333 245.458 306.915 245.271 308.475C245.085 310.035 244.511 311.524 243.602 312.804C243.368 313.117 243.108 313.411 242.825 313.682C241.59 313.269 240.449 312.615 239.465 311.76C236.958 309.492 235.54 305.302 238.348 302.69L238.329 302.703Z" fill="#3182CE"/>
<path d="M323.765 104.735L285.725 119.601C272.879 118.639 260.304 115.408 248.58 110.058C240.484 106.147 231.602 104.149 222.615 104.217C213.629 104.285 204.777 106.417 196.741 110.45C159.512 111.343 139.021 106.562 128.087 102.036L130.971 96.1027L92.4122 81.0327L-3.99023 37.7227V215.236L29.7477 230.306L47.8446 186.787L87.586 205.211L95.2154 185.776L121.309 205.187L123.086 206.687L120.64 209.233C118.397 211.607 117.147 214.752 117.147 218.022C117.147 221.291 118.397 224.437 120.64 226.811C121.725 227.961 123.033 228.877 124.483 229.503C125.933 230.129 127.496 230.452 129.075 230.452C130.654 230.452 132.217 230.129 133.667 229.503C135.118 228.877 136.425 227.961 137.51 226.811L136.172 228.228C133.929 230.602 132.679 233.747 132.679 237.017C132.679 240.286 133.929 243.432 136.172 245.806C137.257 246.956 138.565 247.872 140.015 248.498C141.466 249.124 143.028 249.447 144.607 249.447C146.186 249.447 147.749 249.124 149.199 248.498C150.65 247.872 151.958 246.956 153.043 245.806L160.772 237.751L155.466 243.278C153.223 245.652 151.973 248.797 151.973 252.067C151.973 255.336 153.223 258.482 155.466 260.856C156.551 262.006 157.859 262.922 159.309 263.548C160.76 264.174 162.322 264.497 163.901 264.497C165.48 264.497 167.043 264.174 168.493 263.548C169.944 262.922 171.252 262.006 172.337 260.856L179.966 252.905L176.757 256.25C175.189 257.908 174.315 260.106 174.315 262.391C174.315 264.676 175.189 266.874 176.757 268.533C177.515 269.336 178.428 269.975 179.441 270.412C180.454 270.849 181.545 271.074 182.648 271.074C183.75 271.074 184.841 270.849 185.854 270.412C186.867 269.975 187.78 269.336 188.538 268.533L193.626 263.233C202.368 269.633 209.441 274.306 212.905 275.516C227.34 280.533 227.34 270.485 227.34 270.485C246.619 280.528 256.262 260.442 256.262 260.442C280.362 270.485 280.362 245.372 280.362 245.372C286.384 249.558 290.73 247.64 293.764 243.955C295.736 241.491 296.955 238.508 297.274 235.365C297.593 232.223 296.997 229.055 295.56 226.244L318.605 204.905L328.568 225.323L368.309 206.899L386.406 247.115L413.056 235.187V59.5297L323.765 104.735Z" fill="url(#paint6_linear_639_2)"/>
<path d="M317.365 197.687L275.413 235.064L242.787 174.322L317.365 155.633V197.687Z" fill="#BE7C5E"/>
<path d="M116.937 99.5664C116.937 99.5664 130.404 118.255 210.158 113.582L256.77 183.669L288.007 218.897C290.408 221.564 291.768 225.009 291.835 228.6C291.903 232.192 290.674 235.686 288.375 238.441C285.449 241.847 281.241 243.641 275.416 239.741C275.416 239.741 275.416 263.102 252.112 253.757C252.112 253.757 242.79 272.446 224.147 263.101C224.147 263.101 224.147 272.445 210.165 267.773C196.183 263.101 121.6 202.363 121.6 202.363L88.9717 179.002L116.937 99.5664Z" fill="#FDA57D"/>
<path d="M284.734 122.933C270.928 122.495 257.332 119.418 244.677 113.867C226.566 105.633 205.472 106.682 188.766 117.49C175.146 126.3 163.346 140.89 163.567 164.982C163.567 164.982 181.692 183.671 200.853 146.293H214.836C214.836 146.293 228.304 193.019 266.112 188.338C303.92 183.657 312.724 178.994 312.724 178.994L284.734 122.933Z" fill="#BE7C5E"/>
<path d="M161.609 230.786C166.114 226.27 166.114 218.947 161.609 214.431C157.104 209.915 149.799 209.915 145.294 214.432L135.973 223.775C131.468 228.291 131.468 235.613 135.973 240.13C140.478 244.646 147.783 244.646 152.288 240.129L161.609 230.786Z" fill="#BE7C5E"/>
<path d="M146.587 213.138C151.092 208.621 151.092 201.299 146.587 196.783C142.082 192.267 134.777 192.267 130.272 196.783L120.951 206.126C116.446 210.643 116.446 217.965 120.951 222.481C125.456 226.997 132.761 226.997 137.266 222.481L146.587 213.138Z" fill="#BE7C5E"/>
<path d="M182.581 242.466C187.086 237.95 187.086 230.627 182.581 226.111C178.076 221.595 170.771 221.595 166.266 226.111L154.616 237.789C150.111 242.306 150.111 249.628 154.616 254.144C159.121 258.66 166.426 258.66 170.931 254.144L182.581 242.466Z" fill="#BE7C5E"/>
<path d="M193.848 254.019C196.994 250.865 196.994 245.751 193.848 242.597C190.702 239.443 185.601 239.443 182.454 242.597L175.204 249.866C172.057 253.02 172.057 258.133 175.204 261.287C178.35 264.441 183.451 264.441 186.597 261.287L193.848 254.019Z" fill="#BE7C5E"/>
<path d="M363.972 207.034L322.025 225.723L280.073 122.93L317.365 108.914L363.972 207.034Z" fill="white"/>
<path d="M47.0247 183.672L88.9726 202.36L130.925 99.5679L93.6322 85.5469L47.0247 183.672Z" fill="white"/>
<path d="M0.411133 43.5L93.6323 85.549L33.0417 225.723L0.411133 211.71V43.5Z" fill="#333333"/>
<path d="M410.586 66.8594L317.365 108.913L377.96 249.082L410.586 235.066V66.8594Z" fill="#4D8AF0"/>
</g>
<defs>
<linearGradient id="paint0_linear_639_2" x1="282.162" y1="358.66" x2="143.108" y2="54.5554" gradientUnits="userSpaceOnUse">
<stop stop-color="#808080" stop-opacity="0.251"/>
<stop offset="0.54" stop-color="#808080" stop-opacity="0.122"/>
<stop offset="1" stop-color="#808080" stop-opacity="0.102"/>
</linearGradient>
<linearGradient id="paint1_linear_639_2" x1="207.196" y1="34.1316" x2="195.41" y2="8.35627" gradientUnits="userSpaceOnUse">
<stop stop-color="#808080" stop-opacity="0.251"/>
<stop offset="0.54" stop-color="#808080" stop-opacity="0.122"/>
<stop offset="1" stop-color="#808080" stop-opacity="0.102"/>
</linearGradient>
<linearGradient id="paint2_linear_639_2" x1="212.416" y1="39.7594" x2="212.416" y2="6.08167" gradientUnits="userSpaceOnUse">
<stop stop-color="#808080" stop-opacity="0.251"/>
<stop offset="0.54" stop-color="#808080" stop-opacity="0.122"/>
<stop offset="1" stop-color="#808080" stop-opacity="0.102"/>
</linearGradient>
<linearGradient id="paint3_linear_639_2" x1="122.076" y1="134.96" x2="101.098" y2="89.0808" gradientUnits="userSpaceOnUse">
<stop stop-color="#808080" stop-opacity="0.251"/>
<stop offset="0.54" stop-color="#808080" stop-opacity="0.122"/>
<stop offset="1" stop-color="#808080" stop-opacity="0.102"/>
</linearGradient>
<linearGradient id="paint4_linear_639_2" x1="129.774" y1="251.53" x2="108.774" y2="205.604" gradientUnits="userSpaceOnUse">
<stop stop-color="#808080" stop-opacity="0.251"/>
<stop offset="0.54" stop-color="#808080" stop-opacity="0.122"/>
<stop offset="1" stop-color="#808080" stop-opacity="0.102"/>
</linearGradient>
<linearGradient id="paint5_linear_639_2" x1="203.524" y1="142.663" x2="203.524" y2="117.859" gradientUnits="userSpaceOnUse">
<stop stop-color="#808080" stop-opacity="0.251"/>
<stop offset="0.54" stop-color="#808080" stop-opacity="0.122"/>
<stop offset="1" stop-color="#808080" stop-opacity="0.102"/>
</linearGradient>
<linearGradient id="paint6_linear_639_2" x1="204.533" y1="276.919" x2="204.533" y2="37.7227" gradientUnits="userSpaceOnUse">
<stop stop-color="#808080" stop-opacity="0.251"/>
<stop offset="0.54" stop-color="#808080" stop-opacity="0.122"/>
<stop offset="1" stop-color="#808080" stop-opacity="0.102"/>
</linearGradient>
<clipPath id="clip0_639_2">
<rect width="411" height="405" fill="white"/>
</clipPath>
</defs>
</svg>
